<svg width="26" height="26" viewBox="0 0 26 26" fill="none" xmlns="http://www.w3.org/2000/svg">
<path d="M20.2917 14.678H1.66667C1.19445 14.678 0.798895 14.518 0.480006 14.198C0.161117 13.878 0.00111686 13.4824 5.74712e-06 13.0113C-0.00110536 12.5402 0.158895 12.1447 0.480006 11.8247C0.801117 11.5047 1.19667 11.3447 1.66667 11.3447H20.2917L12.125 3.178C11.7917 2.84467 11.6317 2.45578 11.645 2.01133C11.6583 1.56689 11.8322 1.178 12.1667 0.844666C12.5 0.53911 12.8889 0.379111 13.3333 0.364667C13.7778 0.350222 14.1667 0.510222 14.5 0.844666L25.5 11.8447C25.6667 12.0113 25.785 12.1919 25.855 12.3863C25.925 12.5808 25.9595 12.7891 25.9583 13.0113C25.9572 13.2336 25.9228 13.4419 25.855 13.6363C25.7872 13.8308 25.6689 14.0113 25.5 14.178L14.5 25.178C14.1945 25.4836 13.8128 25.6363 13.355 25.6363C12.8972 25.6363 12.5011 25.4836 12.1667 25.178C11.8333 24.8447 11.6667 24.4491 11.6667 23.9913C11.6667 23.5336 11.8333 23.1374 12.1667 22.803L20.2917 14.678Z" fill="#8C98A2" fill-opacity="0.4"/>
</svg>
